<?xml version="1.0" encoding="utf-8"?>
<!-- Generator: Adobe Illustrator 24.1.1, SVG Export Plug-In . SVG Version: 6.00 Build 0)  -->
<svg version="1.1" id="Layer_1" xmlns="http://www.w3.org/2000/svg" xmlns:xlink="http://www.w3.org/1999/xlink" x="0px" y="0px"
	 viewBox="0 0 2010.4 1236.5" style="enable-background:new 0 0 2010.4 1236.5;" xml:space="preserve">
<g>
	<path d="M908.7,787.5c-3.6-3.2-9-4.7-16.1-4.7h-19.3v35.9h19.3c7.1,0,12.5-1.5,16.1-4.6c3.6-3.1,5.4-7.5,5.4-13.2
		C914.1,795.1,912.3,790.7,908.7,787.5z M771.9,787.5c-3.6-3.2-9-4.7-16.1-4.7h-19.3v35.9h19.3c7.1,0,12.5-1.5,16.1-4.6
		c3.6-3.1,5.4-7.5,5.4-13.2C777.4,795.1,775.6,790.7,771.9,787.5z M597.5,828.7h31.6l-15.8-39.3L597.5,828.7z M1015.8,828.7h31.6
		l-15.8-39.3L1015.8,828.7z M274.7,687.4v256.3h1466V687.4H274.7z M501.9,878.2h-37.2l-23.5-74.7l-24.5,74.7h-37.2l-39.8-122.7h35.8
		l24.7,78.4l25.9-78.4h31.9l24.7,79.1l25.8-79.1h33.1L501.9,878.2z M648.9,878.2l-9.6-23.8h-51.9l-9.6,23.8h-35.4l54.2-122.7h34.2
		L685,878.2H648.9z M777.7,878.2l-22.3-32.6h-18.9v32.6h-34.7V755.4h56.1c11.1,0,20.7,1.8,28.9,5.5c8.2,3.7,14.5,8.9,18.9,15.8
		c4.4,6.8,6.7,14.9,6.7,24.1c0,8.9-2.1,16.6-6.2,23.2c-4.1,6.6-10.1,11.8-17.8,15.5l26.5,38.6H777.7z M914.5,878.2l-22.3-32.6h-18.9
		v32.6h-34.7V755.4h56.1c11.1,0,20.7,1.8,28.9,5.5c8.2,3.7,14.5,8.9,18.9,15.8c4.4,6.8,6.7,14.9,6.7,24.1c0,8.9-2.1,16.6-6.2,23.2
		c-4.1,6.6-10.1,11.8-17.8,15.5l26.5,38.6H914.5z M1067.2,878.2l-9.6-23.8h-51.9l-9.6,23.8h-35.4l54.2-122.7h34.2l54.3,122.7H1067.2
		z M1236.9,878.2h-28.6l-54.2-65.4v65.4h-34V755.4h28.6l54.2,65.4v-65.4h34V878.2z M1366.8,783h-37.5v95.2h-34.7V783h-37.7v-27.5
		h109.9V783z M1421.5,878.2h-34.7V755.4h34.7V878.2z M1551.8,878.2h-98.5V755.4h96.3v26.8h-61.9V803h54.5v25.9h-54.5v22.4h64.2
		V878.2z M1669.4,861c-4.1,6-10.2,10.7-18.4,14.3c-8.2,3.6-18.1,5.3-29.8,5.3c-9.9,0-19.6-1.2-28.9-3.7c-9.4-2.5-16.9-5.7-22.8-9.8
		l11.4-25.6c5.5,3.6,11.9,6.5,19.1,8.8c7.2,2.2,14.4,3.3,21.4,3.3c13.3,0,20-3.3,20-10c0-3.5-1.9-6.1-5.7-7.8
		c-3.8-1.7-9.9-3.5-18.3-5.3c-9.2-2-16.9-4.1-23.1-6.4c-6.2-2.3-11.5-5.9-16-11c-4.4-5-6.7-11.8-6.7-20.3c0-7.5,2-14.2,6.1-20.2
		c4.1-6,10.2-10.8,18.3-14.3c8.1-3.5,18.1-5.3,29.9-5.3c8.1,0,16,0.9,23.8,2.7c7.8,1.8,14.7,4.5,20.7,8l-10.7,25.8
		c-11.7-6.3-23-9.5-34-9.5c-6.9,0-11.9,1-15.1,3.1c-3.2,2-4.7,4.7-4.7,8c0,3.3,1.9,5.7,5.6,7.4c3.7,1.6,9.8,3.3,18.1,5.1
		c9.4,2,17.1,4.1,23.2,6.4c6.1,2.3,11.5,5.9,16,10.9c4.5,5,6.7,11.7,6.7,20.2C1675.6,848.4,1673.5,855,1669.4,861z"/>
	<g>
		<polygon points="1236.8,342.4 1054.3,237 1053,236.3 1051.7,237 869.2,342.4 867.9,343.1 867.9,556.8 869.2,557.5 925.5,590 
			929.3,592.2 929.3,378.3 1053,306.9 1176.7,378.3 1176.7,505.6 1055.6,575.8 1055.5,511.6 1119.8,474.2 1121.1,473.5 
			1121.1,410.4 1119.8,409.7 1054.3,371.8 1053,371.1 1051.7,371.8 986.2,409.7 984.9,410.4 984.9,624.3 986.2,625 1051.7,662.9 
			1053,663.6 1054.3,662.9 1236.8,557.5 1238.1,556.8 1238.1,343.1 		"/>
		<rect x="274.7" y="306.7" width="82.1" height="290.4"/>
		<polygon points="685.3,495.9 606.5,306.7 517.7,306.7 641.7,597.1 722.6,597.1 847.1,306.7 765.8,306.7 		"/>
		<rect x="1292.3" y="306.7" width="82.1" height="290.4"/>
		<path d="M1720.3,375.2c-13.6-21.8-32.6-38.7-57.2-50.6c-24.6-11.9-52.8-17.8-84.6-17.8h-137.3v290.4h137.3
			c31.8,0,60-5.9,84.6-17.8c24.6-11.9,43.7-28.8,57.2-50.6c13.5-21.8,20.3-47.4,20.3-76.7C1740.7,422.6,1733.9,397,1720.3,375.2z
			 M1635.1,510.4c-15.1,14.1-35.1,21.2-59.9,21.2h-51.8V372.3h51.8c24.9,0,44.9,7.1,59.9,21.2c15.1,14.1,22.6,33.6,22.6,58.5
			C1657.7,476.8,1650.2,496.3,1635.1,510.4z"/>
	</g>
</g>
</svg>
