<?xml version="1.0" encoding="utf-8"?>
<!-- Generator: Adobe Illustrator 24.1.1, SVG Export Plug-In . SVG Version: 6.00 Build 0)  -->
<svg version="1.1" id="Layer_1" xmlns="http://www.w3.org/2000/svg" xmlns:xlink="http://www.w3.org/1999/xlink" x="0px" y="0px"
	 viewBox="0 0 288 72" style="enable-background:new 0 0 288 72;" xml:space="preserve">
<style type="text/css">
	.st0{fill:#FFFFFF;}
</style>
<g>
	<rect x="0.5" y="0.5" width="287" height="71"/>
	<path d="M287,1v70H1V1H287 M288,0H0v72h288V0L288,0z"/>
</g>
<g>
	<path class="st0" d="M28.7,30.07c0,5.85-4.33,9.46-11.32,9.46h-6v7.67H6.44v-26.6h10.94C24.37,20.61,28.7,24.18,28.7,30.07z
		 M23.73,30.07c0-3.34-2.24-5.28-6.57-5.28h-5.77v10.56h5.77C21.48,35.35,23.73,33.42,23.73,30.07z"/>
	<path class="st0" d="M52.04,35.58v11.63h-4.75V36.19c0-3.61-1.79-5.36-4.83-5.36c-3.38,0-5.66,2.05-5.66,6.12v10.26h-4.75V24.56
		h-3.12v-3.12h3.12v-2.43h4.75v2.43h7.48v3.12H36.8v4.71c1.56-1.67,3.95-2.58,6.76-2.58C48.43,26.69,52.04,29.46,52.04,35.58z"/>
	<path class="st0" d="M55.08,37.06c0-6.08,4.56-10.37,10.79-10.37c6.31,0,10.83,4.29,10.83,10.37s-4.52,10.41-10.83,10.41
		C59.64,47.47,55.08,43.14,55.08,37.06z M71.91,37.06c0-3.88-2.58-6.35-6.04-6.35c-3.42,0-6,2.47-6,6.35c0,3.88,2.58,6.34,6,6.34
		C69.33,43.41,71.91,40.94,71.91,37.06z"/>
	<path class="st0" d="M91.94,46.11c-1.14,0.91-2.85,1.37-4.56,1.37c-4.45,0-6.99-2.36-6.99-6.84v-9.76h-3.34v-3.8h3.34v-4.64h4.75
		v4.64h5.43v3.8h-5.43v9.65c0,1.97,0.99,3.04,2.81,3.04c0.99,0,1.94-0.27,2.66-0.84L91.94,46.11z"/>
	<path class="st0" d="M91.98,37.06c0-6.08,4.56-10.37,10.79-10.37c6.31,0,10.83,4.29,10.83,10.37s-4.52,10.41-10.83,10.41
		C96.53,47.47,91.98,43.14,91.98,37.06z M108.81,37.06c0-3.88-2.58-6.35-6.04-6.35c-3.42,0-6,2.47-6,6.35c0,3.88,2.58,6.34,6,6.34
		C106.22,43.41,108.81,40.94,108.81,37.06z"/>
	<path class="st0" d="M136.62,35.58v11.63h-4.75V36.19c0-3.61-1.79-5.36-4.83-5.36c-3.38,0-5.66,2.05-5.66,6.12v10.26h-4.75V26.92
		h4.52v2.62c1.56-1.86,4.03-2.85,6.99-2.85C133.01,26.69,136.62,29.46,136.62,35.58z"/>
	<path class="st0" d="M139.13,44.81l0.87-1.52c1.52,1.29,4.22,2.39,7.14,2.39c4.18,0,5.85-1.48,5.85-3.72
		c0-5.78-13.15-1.52-13.15-9.31c0-3,2.51-5.43,7.52-5.43c2.51,0,5.24,0.76,6.8,1.94l-0.87,1.52c-1.67-1.22-3.84-1.79-5.96-1.79
		c-3.88,0-5.58,1.6-5.58,3.72c0,5.97,13.15,1.75,13.15,9.31c0,3.23-2.77,5.43-7.83,5.43C143.81,47.36,140.69,46.26,139.13,44.81z"/>
	<path class="st0" d="M168.54,45.95c-0.99,0.95-2.58,1.41-4.07,1.41c-3.5,0-5.4-2.05-5.4-5.39V29.01h-3.65v-1.63h3.65v-4.33h1.9
		v4.33h6.31v1.63h-6.31v12.77c0,2.54,1.25,3.95,3.69,3.95c1.18,0,2.28-0.38,3.08-1.1L168.54,45.95z"/>
	<path class="st0" d="M188.34,37.75h-17.06c0.19,4.71,3.65,7.9,8.4,7.9c2.51,0,4.83-0.91,6.34-2.77l1.1,1.25
		c-1.75,2.13-4.48,3.23-7.49,3.23c-6,0-10.22-4.18-10.22-10.07c0-5.89,4.07-10.07,9.5-10.07s9.46,4.1,9.46,9.99
		C188.38,37.37,188.34,37.56,188.34,37.75z M171.32,36.27h15.2c-0.27-4.29-3.38-7.37-7.6-7.37S171.62,31.93,171.32,36.27z"/>
	<path class="st0" d="M202.13,27.22v1.86c-0.15,0-0.3-0.04-0.46-0.04c-4.41,0-7.03,2.93-7.03,7.83v10.33h-1.9V27.38h1.82v4.33
		C195.79,28.82,198.41,27.22,202.13,27.22z"/>
	<path class="st0" d="M203.12,44.81l0.87-1.52c1.52,1.29,4.22,2.39,7.14,2.39c4.18,0,5.85-1.48,5.85-3.72
		c0-5.78-13.15-1.52-13.15-9.31c0-3,2.51-5.43,7.52-5.43c2.51,0,5.24,0.76,6.8,1.94l-0.87,1.52c-1.67-1.22-3.84-1.79-5.96-1.79
		c-3.88,0-5.58,1.6-5.58,3.72c0,5.97,13.15,1.75,13.15,9.31c0,3.23-2.77,5.43-7.83,5.43C207.8,47.36,204.68,46.26,203.12,44.81z"/>
</g>
<g>
	
		<sodipodi:namedview  bordercolor="#666666" borderopacity="1" gridtolerance="10" guidetolerance="10" id="namedview12" objecttolerance="10" pagecolor="#ffffff" showgrid="false">
		</sodipodi:namedview>
	<polygon id="polygon9_1_" class="st0" points="254.88,5.27 228.38,20.56 228.38,51.17 236.52,55.87 236.52,25.27 254.88,14.66 
		273.24,25.27 273.24,44.13 254.88,54.78 254.87,44.63 264.44,39.05 264.44,30.35 254.88,24.83 245.32,30.35 245.32,60.96 
		254.85,66.47 281.38,51.15 281.38,20.56 	"/>
</g>
</svg>
